<?xml version="1.0" standalone="no"?>
<!DOCTYPE svg PUBLIC "-//W3C//DTD SVG 20010904//EN"
 "http://www.w3.org/TR/2001/REC-SVG-20010904/DTD/svg10.dtd">
<svg version="1.0" xmlns="http://www.w3.org/2000/svg"
 width="64.000000pt" height="64.000000pt" viewBox="0 0 64.000000 64.000000"
 preserveAspectRatio="xMidYMid meet">

<g transform="translate(0.000000,64.000000) scale(0.100000,-0.100000)"
fill="#000000" stroke="none">
<path d="M484 619 c-61 -23 -136 -86 -154 -129 l-12 -30 -27 42 c-28 44 -91
93 -134 103 -22 6 -26 3 -32 -25 -11 -48 -7 -137 6 -162 9 -17 9 -23 -1 -26
-26 -9 -93 -78 -107 -109 -7 -18 -13 -55 -13 -83 0 -96 59 -169 157 -191 43
-10 59 -9 102 5 48 15 54 15 102 0 129 -42 259 51 259 186 0 66 -18 107 -66
151 l-40 35 18 40 c13 29 17 60 15 123 -1 46 -6 86 -12 87 -5 2 -33 -6 -61
-17z m55 -92 c-5 -109 -20 -134 -78 -129 -36 4 -39 6 -31 22 12 23 13 40 1 40
-5 0 -14 -13 -20 -29 -8 -19 -26 -34 -53 -44 l-40 -16 7 35 c15 81 51 130 129
174 83 48 89 45 85 -53z m-310 15 c36 -27 70 -91 71 -134 0 -22 -4 -25 -21
-21 -11 3 -28 21 -37 39 -15 33 -32 45 -32 23 0 -6 5 -19 10 -30 10 -17 7 -19
-23 -19 -27 0 -36 6 -45 25 -13 27 -17 147 -6 158 8 8 38 -7 83 -41z m73 -191
c104 -66 114 -200 22 -280 -110 -97 -278 -34 -292 109 -6 65 2 93 40 136 63
72 151 85 230 35z m207 15 c36 -19 89 -80 97 -112 20 -79 -20 -175 -89 -211
-38 -20 -122 -22 -155 -4 l-23 12 25 30 c55 65 55 177 2 244 l-24 30 21 12
c30 17 112 16 146 -1z"/>
<path d="M195 319 c-4 -5 -18 -14 -31 -19 -24 -9 -24 -11 -8 -34 8 -14 13 -30
9 -36 -4 -6 10 -10 39 -10 42 0 46 2 46 24 0 14 5 28 10 31 17 11 11 23 -15
29 -14 4 -25 11 -25 16 0 13 -17 13 -25 -1z m33 -32 c13 -15 0 -40 -22 -43
-20 -3 -32 36 -15 47 19 12 25 11 37 -4z"/>
<path d="M485 230 c-10 -11 -25 -20 -33 -20 -10 0 -12 -5 -7 -17 4 -10 10 -28
12 -40 4 -18 12 -22 44 -21 31 0 39 4 39 19 0 10 5 21 10 24 15 9 12 35 -4 35
-8 0 -21 9 -29 20 l-14 20 -18 -20z m34 -34 c16 -19 4 -46 -17 -39 -24 9 -32
25 -20 40 13 17 23 16 37 -1z"/>
</g>
</svg>
