<?xml version="1.0" standalone="no"?>
<!DOCTYPE svg PUBLIC "-//W3C//DTD SVG 20010904//EN"
 "http://www.w3.org/TR/2001/REC-SVG-20010904/DTD/svg10.dtd">
<svg version="1.0" xmlns="http://www.w3.org/2000/svg"
 width="64.000000pt" height="64.000000pt" viewBox="0 0 64.000000 64.000000"
 preserveAspectRatio="xMidYMid meet">

<g transform="translate(0.000000,64.000000) scale(0.100000,-0.100000)"
fill="#000000" stroke="none">
<path d="M285 600 c-6 -27 -10 -30 -45 -30 -29 0 -48 -8 -73 -30 -19 -16 -39
-30 -45 -30 -15 0 -52 -49 -52 -68 0 -9 -12 -29 -27 -44 -20 -21 -26 -37 -25
-63 3 -53 3 -66 -4 -113 -4 -27 -2 -48 5 -55 6 -6 11 -28 11 -48 0 -54 26 -80
91 -91 30 -6 72 -9 94 -9 22 0 66 0 97 0 48 0 62 4 82 24 13 13 36 27 50 31
28 7 66 43 66 62 0 7 8 19 18 26 26 18 42 51 42 86 0 24 6 32 30 41 33 11 41
31 12 31 -36 0 -62 29 -62 70 0 47 -11 56 -44 34 -14 -9 -42 -20 -62 -24 l-36
-8 28 29 c16 16 53 42 84 57 43 21 50 28 33 30 -28 4 -74 -20 -124 -65 -39
-35 -39 -35 -39 -11 0 14 11 42 25 62 14 20 25 41 25 46 0 6 -21 10 -46 10
-44 0 -46 2 -62 40 -20 47 -38 51 -47 10z m35 -39 c7 -14 7 -27 -2 -46 -12
-26 -12 -26 -20 -5 -7 19 -1 70 8 70 2 0 8 -9 14 -19z m-47 -45 c7 -22 7 -31
-2 -34 -6 -2 -25 -15 -42 -29 -24 -20 -32 -23 -44 -13 -22 18 -18 67 6 91 29
29 70 22 82 -15z m127 7 c-1 -5 -7 -19 -15 -33 -8 -14 -14 -35 -15 -47 0 -25
-10 -29 -28 -11 -20 20 -14 65 10 82 24 17 48 21 48 9z m-248 -69 c16 -34 16
-38 0 -60 -21 -28 -31 -30 -48 -6 -18 23 -17 53 2 80 21 30 27 28 46 -14z
m168 -29 l37 -36 -34 -35 c-37 -40 -62 -39 -89 1 -19 28 -10 70 19 90 28 20
26 20 67 -20z m205 -53 c-14 -64 -53 -73 -98 -24 -17 19 -17 20 25 31 24 6 50
15 58 20 20 13 23 8 15 -27z m-285 -53 l32 -27 -23 -16 c-30 -21 -41 -20 -73
5 -33 26 -35 70 -4 101 l22 22 8 -30 c4 -16 21 -41 38 -55z m-143 44 c38 -35
51 -89 24 -98 -43 -13 -99 41 -84 82 6 18 23 43 28 43 2 0 16 -12 32 -27z
m320 -35 c18 -18 33 -39 33 -47 0 -44 -75 -68 -112 -34 -35 31 -13 113 31 113
8 0 30 -14 48 -32z m147 -13 c19 -14 17 -15 -18 -15 -33 0 -37 2 -26 15 15 18
20 18 44 0z m-238 -86 c11 -9 29 -20 42 -24 28 -8 24 -25 -11 -45 -24 -13 -30
-13 -54 0 -40 22 -51 61 -28 96 17 26 19 27 25 8 4 -10 16 -26 26 -35z m212
39 c18 -18 14 -49 -10 -75 -26 -28 -69 -30 -91 -5 -16 17 -15 20 8 40 14 12
25 29 25 37 0 18 50 21 68 3z m-446 -25 c11 -3 17 -19 20 -50 4 -54 -11 -65
-50 -36 -30 22 -37 42 -27 80 4 19 10 23 23 18 9 -4 24 -9 34 -12z m126 -3
c28 0 41 -79 16 -97 -25 -18 -47 -16 -78 8 -30 24 -34 63 -10 90 12 14 21 16
35 9 10 -6 26 -10 37 -10z m217 -80 c3 -5 18 -10 31 -10 31 0 28 -16 -8 -43
-24 -18 -30 -18 -57 -7 -35 14 -38 25 -14 52 18 20 38 23 48 8z m-73 -60 c26
-26 26 -28 9 -44 -24 -22 -67 -20 -91 4 -20 20 -27 60 -13 74 13 13 67 -6 95
-34z m-246 16 c1 -1 4 -16 7 -33 6 -28 4 -33 -13 -33 -26 0 -60 34 -60 60 0
17 5 19 33 13 17 -3 32 -6 33 -7z m128 -36 c6 -36 -4 -50 -37 -50 -24 0 -67
44 -67 68 0 16 7 19 49 18 48 -1 49 -2 55 -36z"/>
</g>
</svg>
