<?xml version="1.0" standalone="no"?>
<!DOCTYPE svg PUBLIC "-//W3C//DTD SVG 20010904//EN"
 "http://www.w3.org/TR/2001/REC-SVG-20010904/DTD/svg10.dtd">
<svg version="1.0" xmlns="http://www.w3.org/2000/svg"
 width="64.000000pt" height="64.000000pt" viewBox="0 0 64.000000 64.000000"
 preserveAspectRatio="xMidYMid meet">

<g transform="translate(0.000000,64.000000) scale(0.100000,-0.100000)"
fill="#000000" stroke="none">
<path d="M314 602 c-17 -11 -33 -46 -45 -101 l-10 -50 -47 20 c-26 11 -57 30
-69 41 -39 36 -59 -8 -28 -62 14 -24 15 -23 8 20 l-6 45 31 -27 c17 -14 45
-29 61 -33 31 -7 64 -35 42 -35 -7 0 -22 5 -33 11 -15 8 -30 7 -63 -6 -50 -19
-51 -21 -61 -114 l-7 -70 37 -37 c20 -20 36 -45 36 -56 0 -25 53 -78 78 -78
11 0 22 -6 25 -14 9 -22 55 -28 89 -11 17 8 40 15 50 15 23 0 78 52 78 74 0 9
5 16 10 16 6 0 22 11 35 25 28 27 33 76 10 95 -9 7 -12 22 -9 39 4 20 -1 35
-18 55 -24 28 -42 32 -165 39 -45 3 -37 17 24 47 28 14 61 34 72 44 21 19 21
19 21 -5 0 -14 -7 -35 -16 -47 -23 -33 -10 -38 15 -6 21 27 27 69 13 92 -6 9
-14 6 -32 -13 -22 -23 -106 -63 -114 -54 -3 2 4 30 15 63 15 45 17 61 8 72
-13 16 -19 17 -35 6z m21 -39 c-5 -16 -13 -52 -20 -82 -6 -30 -17 -57 -23 -59
-19 -6 -14 78 8 126 22 48 47 59 35 15z m-115 -152 c0 -5 -7 -14 -14 -21 -8
-6 -20 -27 -26 -46 -13 -38 -25 -42 -52 -17 -25 23 -22 48 8 72 26 21 84 29
84 12z m68 -9 c10 -7 10 -15 2 -37 -6 -16 -10 -42 -8 -59 3 -25 -2 -32 -24
-40 -22 -8 -32 -6 -48 9 -36 33 -22 92 28 119 32 18 33 18 50 8z m105 -32 c53
-42 38 -120 -23 -120 -34 0 -70 40 -70 77 0 61 44 81 93 43z m95 -6 c39 -27
23 -84 -24 -84 -17 0 -23 7 -26 33 -3 17 -8 40 -13 50 -6 13 -2 17 17 17 13 0
34 -7 46 -16z m-333 -68 c36 -15 42 -25 26 -42 -5 -5 -11 -22 -13 -38 l-3 -28
-26 21 c-25 20 -45 74 -33 92 7 12 9 12 49 -5z m139 -65 c-10 -20 -14 -44 -10
-62 5 -26 3 -29 -20 -29 -38 0 -76 43 -72 83 3 30 5 32 43 29 22 -1 47 2 55 7
21 14 22 8 4 -28z m156 14 c20 -51 -33 -125 -89 -125 -50 0 -78 60 -51 110 8
16 14 17 40 7 25 -10 33 -8 57 10 35 27 32 28 43 -2z m80 6 c13 -26 -4 -65
-37 -80 -13 -6 -26 -11 -28 -11 -4 0 5 78 11 98 6 19 42 14 54 -7z m-325 -101
c10 -11 24 -20 31 -20 18 0 28 -20 16 -32 -16 -16 -51 1 -67 32 -8 16 -15 31
-15 35 0 11 18 4 35 -15z m255 -22 c0 -19 -31 -48 -52 -48 -25 0 -23 18 5 41
25 21 47 25 47 7z m-121 -19 c35 -12 38 -21 15 -44 -32 -32 -96 -2 -81 39 7
19 22 20 66 5z"/>
</g>
</svg>
