<?xml version="1.0" standalone="no"?>
<!DOCTYPE svg PUBLIC "-//W3C//DTD SVG 20010904//EN"
 "http://www.w3.org/TR/2001/REC-SVG-20010904/DTD/svg10.dtd">
<svg version="1.0" xmlns="http://www.w3.org/2000/svg"
 width="64.000000pt" height="64.000000pt" viewBox="0 0 64.000000 64.000000"
 preserveAspectRatio="xMidYMid meet">

<g transform="translate(0.000000,64.000000) scale(0.100000,-0.100000)"
fill="#000000" stroke="none">
<path d="M244 629 c-39 -11 -72 -47 -89 -95 -9 -26 -21 -40 -37 -45 -91 -24
-138 -135 -89 -214 10 -17 20 -53 23 -81 5 -55 34 -122 70 -167 l23 -27 52 24
c29 14 73 45 98 70 37 37 52 46 81 46 57 0 109 33 134 85 13 26 20 57 17 70
-3 17 4 34 20 53 38 42 75 128 76 179 l2 47 -55 18 c-31 10 -83 17 -120 17
-39 -1 -80 5 -102 15 -41 18 -58 19 -104 5z m91 -9 c11 -5 14 -9 7 -9 -7 -1 3
-16 22 -35 20 -18 36 -43 36 -55 0 -11 5 -21 11 -21 6 0 8 7 5 16 -3 9 -6 19
-6 24 0 5 -12 23 -27 42 -23 27 -23 30 -4 13 32 -28 51 -68 51 -107 0 -37 -8
-52 -30 -61 -12 -4 -11 -6 3 -6 39 -2 79 -33 99 -78 66 -149 -129 -266 -230
-138 l-21 26 25 36 c17 26 24 49 24 85 0 46 2 50 33 63 36 16 22 20 -17 5 -22
-8 -28 -6 -42 16 -19 28 -64 54 -91 53 -10 0 -4 -5 13 -10 16 -5 41 -21 55
-36 l24 -27 -33 27 c-19 15 -39 27 -45 27 -6 0 5 -14 25 -30 22 -18 39 -43 44
-63 7 -31 8 -32 15 -7 6 20 7 16 8 -20 1 -56 -25 -101 -72 -123 -151 -72 -273
128 -141 232 15 12 40 21 55 21 24 0 29 4 29 25 0 44 29 85 73 106 45 20 71
22 102 9z m230 -38 c37 -12 51 -23 53 -38 4 -31 -33 -130 -64 -171 l-26 -35
-29 36 c-16 19 -38 38 -49 41 -16 5 -18 13 -13 55 4 38 1 58 -16 89 l-21 41
58 0 c31 -1 80 -9 107 -18z m-410 -382 c14 0 41 6 60 14 32 14 35 13 40 -5 4
-11 22 -30 41 -43 l34 -23 -49 -46 c-62 -58 -115 -85 -139 -71 -25 15 -82 132
-82 170 l0 33 35 -15 c19 -7 46 -14 60 -14z"/>
<path d="M251 566 c-20 -24 4 -58 37 -54 22 2 27 8 27 32 0 17 -6 31 -15 34
-13 5 -13 3 -1 -11 17 -21 7 -47 -18 -47 -27 0 -36 31 -15 47 10 7 13 13 7 13
-6 0 -16 -6 -22 -14z"/>
<path d="M441 377 c20 -13 38 -36 44 -55 5 -17 13 -32 17 -32 11 0 10 5 -6 44
-14 35 -50 66 -75 66 -8 0 1 -10 20 -23z"/>
<path d="M82 341 c-18 -11 -12 -51 10 -64 21 -14 48 7 48 38 0 30 -31 44 -58
26z m43 -31 c0 -16 -6 -26 -18 -28 -19 -4 -32 20 -23 44 9 25 41 13 41 -16z"/>
<path d="M382 258 c-32 -32 8 -80 48 -58 34 18 19 70 -20 70 -9 0 -21 -5 -28
-12z m55 -14 c3 -8 -2 -23 -11 -32 -14 -15 -18 -15 -31 -1 -9 9 -13 23 -9 32
8 21 43 22 51 1z"/>
</g>
</svg>
